<svg width="900" height="800" viewBox="0 0 900 800" fill="none" xmlns="http://www.w3.org/2000/svg">
<rect width="900" height="800" rx="40" fill="url(#paint0_linear_4_33)" fill-opacity="0.39"/>
<path d="M104.176 355.409C102.54 355.409 101.095 354.996 99.8423 354.169C98.5895 353.334 97.6094 352.158 96.902 350.641C96.1946 349.115 95.8409 347.312 95.8409 345.233C95.8409 343.17 96.1946 341.381 96.902 339.864C97.6094 338.347 98.5938 337.175 99.8551 336.348C101.116 335.521 102.574 335.108 104.227 335.108C105.506 335.108 106.516 335.321 107.257 335.747C108.007 336.165 108.578 336.642 108.97 337.179C109.371 337.707 109.682 338.142 109.903 338.483H110.159V328.818H113.176V355H110.261V351.983H109.903C109.682 352.341 109.366 352.793 108.957 353.338C108.548 353.875 107.964 354.357 107.206 354.783C106.447 355.2 105.438 355.409 104.176 355.409ZM104.585 352.699C105.795 352.699 106.818 352.384 107.653 351.753C108.489 351.114 109.124 350.232 109.558 349.107C109.993 347.973 110.21 346.665 110.21 345.182C110.21 343.716 109.997 342.433 109.571 341.334C109.145 340.226 108.514 339.365 107.679 338.751C106.844 338.129 105.813 337.818 104.585 337.818C103.307 337.818 102.241 338.146 101.389 338.803C100.545 339.45 99.9105 340.332 99.4844 341.449C99.0668 342.557 98.858 343.801 98.858 345.182C98.858 346.58 99.071 347.849 99.4972 348.991C99.9318 350.125 100.571 351.028 101.415 351.702C102.267 352.366 103.324 352.699 104.585 352.699ZM124.899 355.46C123.655 355.46 122.526 355.226 121.511 354.757C120.497 354.28 119.692 353.594 119.095 352.699C118.499 351.795 118.2 350.705 118.2 349.426C118.2 348.301 118.422 347.389 118.865 346.69C119.308 345.983 119.901 345.429 120.642 345.028C121.384 344.628 122.202 344.33 123.097 344.134C124 343.929 124.908 343.767 125.82 343.648C127.013 343.494 127.98 343.379 128.722 343.303C129.472 343.217 130.017 343.077 130.358 342.881C130.707 342.685 130.882 342.344 130.882 341.858V341.756C130.882 340.494 130.537 339.514 129.847 338.815C129.165 338.116 128.129 337.767 126.74 337.767C125.3 337.767 124.17 338.082 123.352 338.713C122.534 339.344 121.959 340.017 121.626 340.733L118.763 339.71C119.274 338.517 119.956 337.588 120.808 336.923C121.669 336.25 122.607 335.781 123.621 335.517C124.643 335.244 125.649 335.108 126.638 335.108C127.268 335.108 127.993 335.185 128.811 335.338C129.638 335.483 130.435 335.786 131.202 336.246C131.977 336.706 132.621 337.401 133.132 338.33C133.643 339.259 133.899 340.503 133.899 342.062V355H130.882V352.341H130.729C130.524 352.767 130.183 353.223 129.706 353.709C129.229 354.195 128.594 354.608 127.801 354.949C127.009 355.29 126.041 355.46 124.899 355.46ZM125.359 352.75C126.553 352.75 127.558 352.516 128.376 352.047C129.203 351.578 129.825 350.973 130.243 350.232C130.669 349.49 130.882 348.71 130.882 347.892V345.131C130.754 345.284 130.473 345.425 130.038 345.553C129.612 345.672 129.118 345.778 128.555 345.872C128.001 345.957 127.46 346.034 126.932 346.102C126.412 346.162 125.99 346.213 125.666 346.256C124.882 346.358 124.149 346.524 123.467 346.754C122.794 346.976 122.249 347.312 121.831 347.764C121.422 348.207 121.217 348.812 121.217 349.58C121.217 350.628 121.605 351.42 122.381 351.957C123.165 352.486 124.158 352.75 125.359 352.75ZM146.821 355.409C145.184 355.409 143.74 354.996 142.487 354.169C141.234 353.334 140.254 352.158 139.547 350.641C138.839 349.115 138.485 347.312 138.485 345.233C138.485 343.17 138.839 341.381 139.547 339.864C140.254 338.347 141.238 337.175 142.5 336.348C143.761 335.521 145.218 335.108 146.872 335.108C148.15 335.108 149.16 335.321 149.902 335.747C150.652 336.165 151.223 336.642 151.615 337.179C152.015 337.707 152.326 338.142 152.548 338.483H152.804V328.818H155.821V355H152.906V351.983H152.548C152.326 352.341 152.011 352.793 151.602 353.338C151.193 353.875 150.609 354.357 149.85 354.783C149.092 355.2 148.082 355.409 146.821 355.409ZM147.23 352.699C148.44 352.699 149.463 352.384 150.298 351.753C151.133 351.114 151.768 350.232 152.203 349.107C152.637 347.973 152.855 346.665 152.855 345.182C152.855 343.716 152.642 342.433 152.216 341.334C151.789 340.226 151.159 339.365 150.324 338.751C149.488 338.129 148.457 337.818 147.23 337.818C145.951 337.818 144.886 338.146 144.034 338.803C143.19 339.45 142.555 340.332 142.129 341.449C141.711 342.557 141.502 343.801 141.502 345.182C141.502 346.58 141.716 347.849 142.142 348.991C142.576 350.125 143.216 351.028 144.059 351.702C144.912 352.366 145.968 352.699 147.23 352.699ZM169.743 355.409C167.97 355.409 166.414 354.987 165.076 354.143C163.747 353.3 162.707 352.119 161.957 350.602C161.216 349.085 160.845 347.312 160.845 345.284C160.845 343.239 161.216 341.453 161.957 339.928C162.707 338.402 163.747 337.217 165.076 336.374C166.414 335.53 167.97 335.108 169.743 335.108C171.515 335.108 173.066 335.53 174.396 336.374C175.734 337.217 176.774 338.402 177.515 339.928C178.265 341.453 178.64 343.239 178.64 345.284C178.64 347.312 178.265 349.085 177.515 350.602C176.774 352.119 175.734 353.3 174.396 354.143C173.066 354.987 171.515 355.409 169.743 355.409ZM169.743 352.699C171.089 352.699 172.197 352.354 173.066 351.663C173.936 350.973 174.579 350.065 174.997 348.94C175.414 347.815 175.623 346.597 175.623 345.284C175.623 343.972 175.414 342.749 174.997 341.615C174.579 340.482 173.936 339.565 173.066 338.866C172.197 338.168 171.089 337.818 169.743 337.818C168.396 337.818 167.288 338.168 166.419 338.866C165.549 339.565 164.906 340.482 164.488 341.615C164.071 342.749 163.862 343.972 163.862 345.284C163.862 346.597 164.071 347.815 164.488 348.94C164.906 350.065 165.549 350.973 166.419 351.663C167.288 352.354 168.396 352.699 169.743 352.699ZM197.155 339.761L194.445 340.528C194.274 340.077 194.023 339.638 193.69 339.212C193.366 338.777 192.923 338.419 192.361 338.138C191.798 337.857 191.078 337.716 190.2 337.716C188.999 337.716 187.997 337.993 187.196 338.547C186.403 339.092 186.007 339.787 186.007 340.631C186.007 341.381 186.28 341.973 186.825 342.408C187.371 342.842 188.223 343.205 189.382 343.494L192.297 344.21C194.053 344.636 195.361 345.288 196.222 346.166C197.082 347.036 197.513 348.156 197.513 349.528C197.513 350.653 197.189 351.659 196.541 352.545C195.902 353.432 195.007 354.131 193.857 354.642C192.706 355.153 191.368 355.409 189.842 355.409C187.839 355.409 186.182 354.974 184.869 354.105C183.557 353.236 182.726 351.966 182.376 350.295L185.24 349.58C185.513 350.636 186.028 351.429 186.787 351.957C187.554 352.486 188.555 352.75 189.791 352.75C191.197 352.75 192.314 352.452 193.141 351.855C193.976 351.25 194.393 350.526 194.393 349.682C194.393 349 194.155 348.429 193.678 347.969C193.2 347.5 192.467 347.151 191.479 346.92L188.206 346.153C186.408 345.727 185.087 345.067 184.243 344.172C183.408 343.268 182.99 342.139 182.99 340.784C182.99 339.676 183.301 338.696 183.923 337.844C184.554 336.991 185.411 336.322 186.493 335.837C187.584 335.351 188.82 335.108 190.2 335.108C192.143 335.108 193.669 335.534 194.777 336.386C195.893 337.239 196.686 338.364 197.155 339.761ZM204.253 355.205C203.623 355.205 203.081 354.979 202.63 354.527C202.178 354.075 201.952 353.534 201.952 352.903C201.952 352.273 202.178 351.732 202.63 351.28C203.081 350.828 203.623 350.602 204.253 350.602C204.884 350.602 205.425 350.828 205.877 351.28C206.328 351.732 206.554 352.273 206.554 352.903C206.554 353.321 206.448 353.705 206.235 354.054C206.03 354.403 205.753 354.685 205.404 354.898C205.063 355.102 204.679 355.205 204.253 355.205ZM204.253 340.631C203.623 340.631 203.081 340.405 202.63 339.953C202.178 339.501 201.952 338.96 201.952 338.33C201.952 337.699 202.178 337.158 202.63 336.706C203.081 336.254 203.623 336.028 204.253 336.028C204.884 336.028 205.425 336.254 205.877 336.706C206.328 337.158 206.554 337.699 206.554 338.33C206.554 338.747 206.448 339.131 206.235 339.48C206.03 339.83 205.753 340.111 205.404 340.324C205.063 340.528 204.679 340.631 204.253 340.631Z" fill="white"/>
<path d="M101.176 455.409C99.5398 455.409 98.0952 454.996 96.8423 454.169C95.5895 453.334 94.6094 452.158 93.902 450.641C93.1946 449.115 92.8409 447.312 92.8409 445.233C92.8409 443.17 93.1946 441.381 93.902 439.864C94.6094 438.347 95.5938 437.175 96.8551 436.348C98.1165 435.521 99.5739 435.108 101.227 435.108C102.506 435.108 103.516 435.321 104.257 435.747C105.007 436.165 105.578 436.642 105.97 437.179C106.371 437.707 106.682 438.142 106.903 438.483H107.159V428.818H110.176V455H107.261V451.983H106.903C106.682 452.341 106.366 452.793 105.957 453.338C105.548 453.875 104.964 454.357 104.206 454.783C103.447 455.2 102.438 455.409 101.176 455.409ZM101.585 452.699C102.795 452.699 103.818 452.384 104.653 451.753C105.489 451.114 106.124 450.232 106.558 449.107C106.993 447.973 107.21 446.665 107.21 445.182C107.21 443.716 106.997 442.433 106.571 441.334C106.145 440.226 105.514 439.365 104.679 438.751C103.844 438.129 102.813 437.818 101.585 437.818C100.307 437.818 99.2415 438.146 98.3892 438.803C97.5455 439.45 96.9105 440.332 96.4844 441.449C96.0668 442.557 95.858 443.801 95.858 445.182C95.858 446.58 96.071 447.849 96.4972 448.991C96.9318 450.125 97.571 451.028 98.4148 451.702C99.267 452.366 100.324 452.699 101.585 452.699ZM121.899 455.46C120.655 455.46 119.526 455.226 118.511 454.757C117.497 454.28 116.692 453.594 116.095 452.699C115.499 451.795 115.2 450.705 115.2 449.426C115.2 448.301 115.422 447.389 115.865 446.69C116.308 445.983 116.901 445.429 117.642 445.028C118.384 444.628 119.202 444.33 120.097 444.134C121 443.929 121.908 443.767 122.82 443.648C124.013 443.494 124.98 443.379 125.722 443.303C126.472 443.217 127.017 443.077 127.358 442.881C127.707 442.685 127.882 442.344 127.882 441.858V441.756C127.882 440.494 127.537 439.514 126.847 438.815C126.165 438.116 125.129 437.767 123.74 437.767C122.3 437.767 121.17 438.082 120.352 438.713C119.534 439.344 118.959 440.017 118.626 440.733L115.763 439.71C116.274 438.517 116.956 437.588 117.808 436.923C118.669 436.25 119.607 435.781 120.621 435.517C121.643 435.244 122.649 435.108 123.638 435.108C124.268 435.108 124.993 435.185 125.811 435.338C126.638 435.483 127.435 435.786 128.202 436.246C128.977 436.706 129.621 437.401 130.132 438.33C130.643 439.259 130.899 440.503 130.899 442.062V455H127.882V452.341H127.729C127.524 452.767 127.183 453.223 126.706 453.709C126.229 454.195 125.594 454.608 124.801 454.949C124.009 455.29 123.041 455.46 121.899 455.46ZM122.359 452.75C123.553 452.75 124.558 452.516 125.376 452.047C126.203 451.578 126.825 450.973 127.243 450.232C127.669 449.49 127.882 448.71 127.882 447.892V445.131C127.754 445.284 127.473 445.425 127.038 445.553C126.612 445.672 126.118 445.778 125.555 445.872C125.001 445.957 124.46 446.034 123.932 446.102C123.412 446.162 122.99 446.213 122.666 446.256C121.882 446.358 121.149 446.524 120.467 446.754C119.794 446.976 119.249 447.312 118.831 447.764C118.422 448.207 118.217 448.812 118.217 449.58C118.217 450.628 118.605 451.42 119.381 451.957C120.165 452.486 121.158 452.75 122.359 452.75ZM143.821 455.409C142.184 455.409 140.74 454.996 139.487 454.169C138.234 453.334 137.254 452.158 136.547 450.641C135.839 449.115 135.485 447.312 135.485 445.233C135.485 443.17 135.839 441.381 136.547 439.864C137.254 438.347 138.238 437.175 139.5 436.348C140.761 435.521 142.218 435.108 143.872 435.108C145.15 435.108 146.16 435.321 146.902 435.747C147.652 436.165 148.223 436.642 148.615 437.179C149.015 437.707 149.326 438.142 149.548 438.483H149.804V428.818H152.821V455H149.906V451.983H149.548C149.326 452.341 149.011 452.793 148.602 453.338C148.193 453.875 147.609 454.357 146.85 454.783C146.092 455.2 145.082 455.409 143.821 455.409ZM144.23 452.699C145.44 452.699 146.463 452.384 147.298 451.753C148.133 451.114 148.768 450.232 149.203 449.107C149.637 447.973 149.855 446.665 149.855 445.182C149.855 443.716 149.642 442.433 149.216 441.334C148.789 440.226 148.159 439.365 147.324 438.751C146.488 438.129 145.457 437.818 144.23 437.818C142.951 437.818 141.886 438.146 141.034 438.803C140.19 439.45 139.555 440.332 139.129 441.449C138.711 442.557 138.502 443.801 138.502 445.182C138.502 446.58 138.716 447.849 139.142 448.991C139.576 450.125 140.216 451.028 141.059 451.702C141.912 452.366 142.968 452.699 144.23 452.699ZM166.743 455.409C164.97 455.409 163.414 454.987 162.076 454.143C160.747 453.3 159.707 452.119 158.957 450.602C158.216 449.085 157.845 447.312 157.845 445.284C157.845 443.239 158.216 441.453 158.957 439.928C159.707 438.402 160.747 437.217 162.076 436.374C163.414 435.53 164.97 435.108 166.743 435.108C168.515 435.108 170.066 435.53 171.396 436.374C172.734 437.217 173.774 438.402 174.515 439.928C175.265 441.453 175.64 443.239 175.64 445.284C175.64 447.312 175.265 449.085 174.515 450.602C173.774 452.119 172.734 453.3 171.396 454.143C170.066 454.987 168.515 455.409 166.743 455.409ZM166.743 452.699C168.089 452.699 169.197 452.354 170.066 451.663C170.936 450.973 171.579 450.065 171.997 448.94C172.414 447.815 172.623 446.597 172.623 445.284C172.623 443.972 172.414 442.749 171.997 441.615C171.579 440.482 170.936 439.565 170.066 438.866C169.197 438.168 168.089 437.818 166.743 437.818C165.396 437.818 164.288 438.168 163.419 438.866C162.549 439.565 161.906 440.482 161.488 441.615C161.071 442.749 160.862 443.972 160.862 445.284C160.862 446.597 161.071 447.815 161.488 448.94C161.906 450.065 162.549 450.973 163.419 451.663C164.288 452.354 165.396 452.699 166.743 452.699ZM194.155 439.761L191.445 440.528C191.274 440.077 191.023 439.638 190.69 439.212C190.366 438.777 189.923 438.419 189.361 438.138C188.798 437.857 188.078 437.716 187.2 437.716C185.999 437.716 184.997 437.993 184.196 438.547C183.403 439.092 183.007 439.787 183.007 440.631C183.007 441.381 183.28 441.973 183.825 442.408C184.371 442.842 185.223 443.205 186.382 443.494L189.297 444.21C191.053 444.636 192.361 445.288 193.222 446.166C194.082 447.036 194.513 448.156 194.513 449.528C194.513 450.653 194.189 451.659 193.541 452.545C192.902 453.432 192.007 454.131 190.857 454.642C189.706 455.153 188.368 455.409 186.842 455.409C184.839 455.409 183.182 454.974 181.869 454.105C180.557 453.236 179.726 451.966 179.376 450.295L182.24 449.58C182.513 450.636 183.028 451.429 183.787 451.957C184.554 452.486 185.555 452.75 186.791 452.75C188.197 452.75 189.314 452.452 190.141 451.855C190.976 451.25 191.393 450.526 191.393 449.682C191.393 449 191.155 448.429 190.678 447.969C190.2 447.5 189.467 447.151 188.479 446.92L185.206 446.153C183.408 445.727 182.087 445.067 181.243 444.172C180.408 443.268 179.99 442.139 179.99 440.784C179.99 439.676 180.301 438.696 180.923 437.844C181.554 436.991 182.411 436.322 183.493 435.837C184.584 435.351 185.82 435.108 187.2 435.108C189.143 435.108 190.669 435.534 191.777 436.386C192.893 437.239 193.686 438.364 194.155 439.761ZM201.253 455.205C200.623 455.205 200.081 454.979 199.63 454.527C199.178 454.075 198.952 453.534 198.952 452.903C198.952 452.273 199.178 451.732 199.63 451.28C200.081 450.828 200.623 450.602 201.253 450.602C201.884 450.602 202.425 450.828 202.877 451.28C203.328 451.732 203.554 452.273 203.554 452.903C203.554 453.321 203.448 453.705 203.235 454.054C203.03 454.403 202.753 454.685 202.404 454.898C202.063 455.102 201.679 455.205 201.253 455.205ZM201.253 440.631C200.623 440.631 200.081 440.405 199.63 439.953C199.178 439.501 198.952 438.96 198.952 438.33C198.952 437.699 199.178 437.158 199.63 436.706C200.081 436.254 200.623 436.028 201.253 436.028C201.884 436.028 202.425 436.254 202.877 436.706C203.328 437.158 203.554 437.699 203.554 438.33C203.554 438.747 203.448 439.131 203.235 439.48C203.03 439.83 202.753 440.111 202.404 440.324C202.063 440.528 201.679 440.631 201.253 440.631Z" fill="white"/>
<path d="M101.176 547.409C99.5398 547.409 98.0952 546.996 96.8423 546.169C95.5895 545.334 94.6094 544.158 93.902 542.641C93.1946 541.115 92.8409 539.312 92.8409 537.233C92.8409 535.17 93.1946 533.381 93.902 531.864C94.6094 530.347 95.5938 529.175 96.8551 528.348C98.1165 527.521 99.5739 527.108 101.227 527.108C102.506 527.108 103.516 527.321 104.257 527.747C105.007 528.165 105.578 528.642 105.97 529.179C106.371 529.707 106.682 530.142 106.903 530.483H107.159V520.818H110.176V547H107.261V543.983H106.903C106.682 544.341 106.366 544.793 105.957 545.338C105.548 545.875 104.964 546.357 104.206 546.783C103.447 547.2 102.438 547.409 101.176 547.409ZM101.585 544.699C102.795 544.699 103.818 544.384 104.653 543.753C105.489 543.114 106.124 542.232 106.558 541.107C106.993 539.973 107.21 538.665 107.21 537.182C107.21 535.716 106.997 534.433 106.571 533.334C106.145 532.226 105.514 531.365 104.679 530.751C103.844 530.129 102.813 529.818 101.585 529.818C100.307 529.818 99.2415 530.146 98.3892 530.803C97.5455 531.45 96.9105 532.332 96.4844 533.449C96.0668 534.557 95.858 535.801 95.858 537.182C95.858 538.58 96.071 539.849 96.4972 540.991C96.9318 542.125 97.571 543.028 98.4148 543.702C99.267 544.366 100.324 544.699 101.585 544.699ZM121.899 547.46C120.655 547.46 119.526 547.226 118.511 546.757C117.497 546.28 116.692 545.594 116.095 544.699C115.499 543.795 115.2 542.705 115.2 541.426C115.2 540.301 115.422 539.389 115.865 538.69C116.308 537.983 116.901 537.429 117.642 537.028C118.384 536.628 119.202 536.33 120.097 536.134C121 535.929 121.908 535.767 122.82 535.648C124.013 535.494 124.98 535.379 125.722 535.303C126.472 535.217 127.017 535.077 127.358 534.881C127.707 534.685 127.882 534.344 127.882 533.858V533.756C127.882 532.494 127.537 531.514 126.847 530.815C126.165 530.116 125.129 529.767 123.74 529.767C122.3 529.767 121.17 530.082 120.352 530.713C119.534 531.344 118.959 532.017 118.626 532.733L115.763 531.71C116.274 530.517 116.956 529.588 117.808 528.923C118.669 528.25 119.607 527.781 120.621 527.517C121.643 527.244 122.649 527.108 123.638 527.108C124.268 527.108 124.993 527.185 125.811 527.338C126.638 527.483 127.435 527.786 128.202 528.246C128.977 528.706 129.621 529.401 130.132 530.33C130.643 531.259 130.899 532.503 130.899 534.062V547H127.882V544.341H127.729C127.524 544.767 127.183 545.223 126.706 545.709C126.229 546.195 125.594 546.608 124.801 546.949C124.009 547.29 123.041 547.46 121.899 547.46ZM122.359 544.75C123.553 544.75 124.558 544.516 125.376 544.047C126.203 543.578 126.825 542.973 127.243 542.232C127.669 541.49 127.882 540.71 127.882 539.892V537.131C127.754 537.284 127.473 537.425 127.038 537.553C126.612 537.672 126.118 537.778 125.555 537.872C125.001 537.957 124.46 538.034 123.932 538.102C123.412 538.162 122.99 538.213 122.666 538.256C121.882 538.358 121.149 538.524 120.467 538.754C119.794 538.976 119.249 539.312 118.831 539.764C118.422 540.207 118.217 540.812 118.217 541.58C118.217 542.628 118.605 543.42 119.381 543.957C120.165 544.486 121.158 544.75 122.359 544.75ZM143.821 547.409C142.184 547.409 140.74 546.996 139.487 546.169C138.234 545.334 137.254 544.158 136.547 542.641C135.839 541.115 135.485 539.312 135.485 537.233C135.485 535.17 135.839 533.381 136.547 531.864C137.254 530.347 138.238 529.175 139.5 528.348C140.761 527.521 142.218 527.108 143.872 527.108C145.15 527.108 146.16 527.321 146.902 527.747C147.652 528.165 148.223 528.642 148.615 529.179C149.015 529.707 149.326 530.142 149.548 530.483H149.804V520.818H152.821V547H149.906V543.983H149.548C149.326 544.341 149.011 544.793 148.602 545.338C148.193 545.875 147.609 546.357 146.85 546.783C146.092 547.2 145.082 547.409 143.821 547.409ZM144.23 544.699C145.44 544.699 146.463 544.384 147.298 543.753C148.133 543.114 148.768 542.232 149.203 541.107C149.637 539.973 149.855 538.665 149.855 537.182C149.855 535.716 149.642 534.433 149.216 533.334C148.789 532.226 148.159 531.365 147.324 530.751C146.488 530.129 145.457 529.818 144.23 529.818C142.951 529.818 141.886 530.146 141.034 530.803C140.19 531.45 139.555 532.332 139.129 533.449C138.711 534.557 138.502 535.801 138.502 537.182C138.502 538.58 138.716 539.849 139.142 540.991C139.576 542.125 140.216 543.028 141.059 543.702C141.912 544.366 142.968 544.699 144.23 544.699ZM166.743 547.409C164.97 547.409 163.414 546.987 162.076 546.143C160.747 545.3 159.707 544.119 158.957 542.602C158.216 541.085 157.845 539.312 157.845 537.284C157.845 535.239 158.216 533.453 158.957 531.928C159.707 530.402 160.747 529.217 162.076 528.374C163.414 527.53 164.97 527.108 166.743 527.108C168.515 527.108 170.066 527.53 171.396 528.374C172.734 529.217 173.774 530.402 174.515 531.928C175.265 533.453 175.64 535.239 175.64 537.284C175.64 539.312 175.265 541.085 174.515 542.602C173.774 544.119 172.734 545.3 171.396 546.143C170.066 546.987 168.515 547.409 166.743 547.409ZM166.743 544.699C168.089 544.699 169.197 544.354 170.066 543.663C170.936 542.973 171.579 542.065 171.997 540.94C172.414 539.815 172.623 538.597 172.623 537.284C172.623 535.972 172.414 534.749 171.997 533.615C171.579 532.482 170.936 531.565 170.066 530.866C169.197 530.168 168.089 529.818 166.743 529.818C165.396 529.818 164.288 530.168 163.419 530.866C162.549 531.565 161.906 532.482 161.488 533.615C161.071 534.749 160.862 535.972 160.862 537.284C160.862 538.597 161.071 539.815 161.488 540.94C161.906 542.065 162.549 542.973 163.419 543.663C164.288 544.354 165.396 544.699 166.743 544.699ZM194.155 531.761L191.445 532.528C191.274 532.077 191.023 531.638 190.69 531.212C190.366 530.777 189.923 530.419 189.361 530.138C188.798 529.857 188.078 529.716 187.2 529.716C185.999 529.716 184.997 529.993 184.196 530.547C183.403 531.092 183.007 531.787 183.007 532.631C183.007 533.381 183.28 533.973 183.825 534.408C184.371 534.842 185.223 535.205 186.382 535.494L189.297 536.21C191.053 536.636 192.361 537.288 193.222 538.166C194.082 539.036 194.513 540.156 194.513 541.528C194.513 542.653 194.189 543.659 193.541 544.545C192.902 545.432 192.007 546.131 190.857 546.642C189.706 547.153 188.368 547.409 186.842 547.409C184.839 547.409 183.182 546.974 181.869 546.105C180.557 545.236 179.726 543.966 179.376 542.295L182.24 541.58C182.513 542.636 183.028 543.429 183.787 543.957C184.554 544.486 185.555 544.75 186.791 544.75C188.197 544.75 189.314 544.452 190.141 543.855C190.976 543.25 191.393 542.526 191.393 541.682C191.393 541 191.155 540.429 190.678 539.969C190.2 539.5 189.467 539.151 188.479 538.92L185.206 538.153C183.408 537.727 182.087 537.067 181.243 536.172C180.408 535.268 179.99 534.139 179.99 532.784C179.99 531.676 180.301 530.696 180.923 529.844C181.554 528.991 182.411 528.322 183.493 527.837C184.584 527.351 185.82 527.108 187.2 527.108C189.143 527.108 190.669 527.534 191.777 528.386C192.893 529.239 193.686 530.364 194.155 531.761ZM201.253 547.205C200.623 547.205 200.081 546.979 199.63 546.527C199.178 546.075 198.952 545.534 198.952 544.903C198.952 544.273 199.178 543.732 199.63 543.28C200.081 542.828 200.623 542.602 201.253 542.602C201.884 542.602 202.425 542.828 202.877 543.28C203.328 543.732 203.554 544.273 203.554 544.903C203.554 545.321 203.448 545.705 203.235 546.054C203.03 546.403 202.753 546.685 202.404 546.898C202.063 547.102 201.679 547.205 201.253 547.205ZM201.253 532.631C200.623 532.631 200.081 532.405 199.63 531.953C199.178 531.501 198.952 530.96 198.952 530.33C198.952 529.699 199.178 529.158 199.63 528.706C200.081 528.254 200.623 528.028 201.253 528.028C201.884 528.028 202.425 528.254 202.877 528.706C203.328 529.158 203.554 529.699 203.554 530.33C203.554 530.747 203.448 531.131 203.235 531.48C203.03 531.83 202.753 532.111 202.404 532.324C202.063 532.528 201.679 532.631 201.253 532.631Z" fill="white"/>
<path d="M101.176 649.409C99.5398 649.409 98.0952 648.996 96.8423 648.169C95.5895 647.334 94.6094 646.158 93.902 644.641C93.1946 643.115 92.8409 641.312 92.8409 639.233C92.8409 637.17 93.1946 635.381 93.902 633.864C94.6094 632.347 95.5938 631.175 96.8551 630.348C98.1165 629.521 99.5739 629.108 101.227 629.108C102.506 629.108 103.516 629.321 104.257 629.747C105.007 630.165 105.578 630.642 105.97 631.179C106.371 631.707 106.682 632.142 106.903 632.483H107.159V622.818H110.176V649H107.261V645.983H106.903C106.682 646.341 106.366 646.793 105.957 647.338C105.548 647.875 104.964 648.357 104.206 648.783C103.447 649.2 102.438 649.409 101.176 649.409ZM101.585 646.699C102.795 646.699 103.818 646.384 104.653 645.753C105.489 645.114 106.124 644.232 106.558 643.107C106.993 641.973 107.21 640.665 107.21 639.182C107.21 637.716 106.997 636.433 106.571 635.334C106.145 634.226 105.514 633.365 104.679 632.751C103.844 632.129 102.813 631.818 101.585 631.818C100.307 631.818 99.2415 632.146 98.3892 632.803C97.5455 633.45 96.9105 634.332 96.4844 635.449C96.0668 636.557 95.858 637.801 95.858 639.182C95.858 640.58 96.071 641.849 96.4972 642.991C96.9318 644.125 97.571 645.028 98.4148 645.702C99.267 646.366 100.324 646.699 101.585 646.699ZM121.899 649.46C120.655 649.46 119.526 649.226 118.511 648.757C117.497 648.28 116.692 647.594 116.095 646.699C115.499 645.795 115.2 644.705 115.2 643.426C115.2 642.301 115.422 641.389 115.865 640.69C116.308 639.983 116.901 639.429 117.642 639.028C118.384 638.628 119.202 638.33 120.097 638.134C121 637.929 121.908 637.767 122.82 637.648C124.013 637.494 124.98 637.379 125.722 637.303C126.472 637.217 127.017 637.077 127.358 636.881C127.707 636.685 127.882 636.344 127.882 635.858V635.756C127.882 634.494 127.537 633.514 126.847 632.815C126.165 632.116 125.129 631.767 123.74 631.767C122.3 631.767 121.17 632.082 120.352 632.713C119.534 633.344 118.959 634.017 118.626 634.733L115.763 633.71C116.274 632.517 116.956 631.588 117.808 630.923C118.669 630.25 119.607 629.781 120.621 629.517C121.643 629.244 122.649 629.108 123.638 629.108C124.268 629.108 124.993 629.185 125.811 629.338C126.638 629.483 127.435 629.786 128.202 630.246C128.977 630.706 129.621 631.401 130.132 632.33C130.643 633.259 130.899 634.503 130.899 636.062V649H127.882V646.341H127.729C127.524 646.767 127.183 647.223 126.706 647.709C126.229 648.195 125.594 648.608 124.801 648.949C124.009 649.29 123.041 649.46 121.899 649.46ZM122.359 646.75C123.553 646.75 124.558 646.516 125.376 646.047C126.203 645.578 126.825 644.973 127.243 644.232C127.669 643.49 127.882 642.71 127.882 641.892V639.131C127.754 639.284 127.473 639.425 127.038 639.553C126.612 639.672 126.118 639.778 125.555 639.872C125.001 639.957 124.46 640.034 123.932 640.102C123.412 640.162 122.99 640.213 122.666 640.256C121.882 640.358 121.149 640.524 120.467 640.754C119.794 640.976 119.249 641.312 118.831 641.764C118.422 642.207 118.217 642.812 118.217 643.58C118.217 644.628 118.605 645.42 119.381 645.957C120.165 646.486 121.158 646.75 122.359 646.75ZM143.821 649.409C142.184 649.409 140.74 648.996 139.487 648.169C138.234 647.334 137.254 646.158 136.547 644.641C135.839 643.115 135.485 641.312 135.485 639.233C135.485 637.17 135.839 635.381 136.547 633.864C137.254 632.347 138.238 631.175 139.5 630.348C140.761 629.521 142.218 629.108 143.872 629.108C145.15 629.108 146.16 629.321 146.902 629.747C147.652 630.165 148.223 630.642 148.615 631.179C149.015 631.707 149.326 632.142 149.548 632.483H149.804V622.818H152.821V649H149.906V645.983H149.548C149.326 646.341 149.011 646.793 148.602 647.338C148.193 647.875 147.609 648.357 146.85 648.783C146.092 649.2 145.082 649.409 143.821 649.409ZM144.23 646.699C145.44 646.699 146.463 646.384 147.298 645.753C148.133 645.114 148.768 644.232 149.203 643.107C149.637 641.973 149.855 640.665 149.855 639.182C149.855 637.716 149.642 636.433 149.216 635.334C148.789 634.226 148.159 633.365 147.324 632.751C146.488 632.129 145.457 631.818 144.23 631.818C142.951 631.818 141.886 632.146 141.034 632.803C140.19 633.45 139.555 634.332 139.129 635.449C138.711 636.557 138.502 637.801 138.502 639.182C138.502 640.58 138.716 641.849 139.142 642.991C139.576 644.125 140.216 645.028 141.059 645.702C141.912 646.366 142.968 646.699 144.23 646.699ZM166.743 649.409C164.97 649.409 163.414 648.987 162.076 648.143C160.747 647.3 159.707 646.119 158.957 644.602C158.216 643.085 157.845 641.312 157.845 639.284C157.845 637.239 158.216 635.453 158.957 633.928C159.707 632.402 160.747 631.217 162.076 630.374C163.414 629.53 164.97 629.108 166.743 629.108C168.515 629.108 170.066 629.53 171.396 630.374C172.734 631.217 173.774 632.402 174.515 633.928C175.265 635.453 175.64 637.239 175.64 639.284C175.64 641.312 175.265 643.085 174.515 644.602C173.774 646.119 172.734 647.3 171.396 648.143C170.066 648.987 168.515 649.409 166.743 649.409ZM166.743 646.699C168.089 646.699 169.197 646.354 170.066 645.663C170.936 644.973 171.579 644.065 171.997 642.94C172.414 641.815 172.623 640.597 172.623 639.284C172.623 637.972 172.414 636.749 171.997 635.615C171.579 634.482 170.936 633.565 170.066 632.866C169.197 632.168 168.089 631.818 166.743 631.818C165.396 631.818 164.288 632.168 163.419 632.866C162.549 633.565 161.906 634.482 161.488 635.615C161.071 636.749 160.862 637.972 160.862 639.284C160.862 640.597 161.071 641.815 161.488 642.94C161.906 644.065 162.549 644.973 163.419 645.663C164.288 646.354 165.396 646.699 166.743 646.699ZM194.155 633.761L191.445 634.528C191.274 634.077 191.023 633.638 190.69 633.212C190.366 632.777 189.923 632.419 189.361 632.138C188.798 631.857 188.078 631.716 187.2 631.716C185.999 631.716 184.997 631.993 184.196 632.547C183.403 633.092 183.007 633.787 183.007 634.631C183.007 635.381 183.28 635.973 183.825 636.408C184.371 636.842 185.223 637.205 186.382 637.494L189.297 638.21C191.053 638.636 192.361 639.288 193.222 640.166C194.082 641.036 194.513 642.156 194.513 643.528C194.513 644.653 194.189 645.659 193.541 646.545C192.902 647.432 192.007 648.131 190.857 648.642C189.706 649.153 188.368 649.409 186.842 649.409C184.839 649.409 183.182 648.974 181.869 648.105C180.557 647.236 179.726 645.966 179.376 644.295L182.24 643.58C182.513 644.636 183.028 645.429 183.787 645.957C184.554 646.486 185.555 646.75 186.791 646.75C188.197 646.75 189.314 646.452 190.141 645.855C190.976 645.25 191.393 644.526 191.393 643.682C191.393 643 191.155 642.429 190.678 641.969C190.2 641.5 189.467 641.151 188.479 640.92L185.206 640.153C183.408 639.727 182.087 639.067 181.243 638.172C180.408 637.268 179.99 636.139 179.99 634.784C179.99 633.676 180.301 632.696 180.923 631.844C181.554 630.991 182.411 630.322 183.493 629.837C184.584 629.351 185.82 629.108 187.2 629.108C189.143 629.108 190.669 629.534 191.777 630.386C192.893 631.239 193.686 632.364 194.155 633.761ZM201.253 649.205C200.623 649.205 200.081 648.979 199.63 648.527C199.178 648.075 198.952 647.534 198.952 646.903C198.952 646.273 199.178 645.732 199.63 645.28C200.081 644.828 200.623 644.602 201.253 644.602C201.884 644.602 202.425 644.828 202.877 645.28C203.328 645.732 203.554 646.273 203.554 646.903C203.554 647.321 203.448 647.705 203.235 648.054C203.03 648.403 202.753 648.685 202.404 648.898C202.063 649.102 201.679 649.205 201.253 649.205ZM201.253 634.631C200.623 634.631 200.081 634.405 199.63 633.953C199.178 633.501 198.952 632.96 198.952 632.33C198.952 631.699 199.178 631.158 199.63 630.706C200.081 630.254 200.623 630.028 201.253 630.028C201.884 630.028 202.425 630.254 202.877 630.706C203.328 631.158 203.554 631.699 203.554 632.33C203.554 632.747 203.448 633.131 203.235 633.48C203.03 633.83 202.753 634.111 202.404 634.324C202.063 634.528 201.679 634.631 201.253 634.631Z" fill="white"/>
<path d="M104.176 265.409C102.54 265.409 101.095 264.996 99.8423 264.169C98.5895 263.334 97.6094 262.158 96.902 260.641C96.1946 259.115 95.8409 257.312 95.8409 255.233C95.8409 253.17 96.1946 251.381 96.902 249.864C97.6094 248.347 98.5938 247.175 99.8551 246.348C101.116 245.521 102.574 245.108 104.227 245.108C105.506 245.108 106.516 245.321 107.257 245.747C108.007 246.165 108.578 246.642 108.97 247.179C109.371 247.707 109.682 248.142 109.903 248.483H110.159V238.818H113.176V265H110.261V261.983H109.903C109.682 262.341 109.366 262.793 108.957 263.338C108.548 263.875 107.964 264.357 107.206 264.783C106.447 265.2 105.438 265.409 104.176 265.409ZM104.585 262.699C105.795 262.699 106.818 262.384 107.653 261.753C108.489 261.114 109.124 260.232 109.558 259.107C109.993 257.973 110.21 256.665 110.21 255.182C110.21 253.716 109.997 252.433 109.571 251.334C109.145 250.226 108.514 249.365 107.679 248.751C106.844 248.129 105.813 247.818 104.585 247.818C103.307 247.818 102.241 248.146 101.389 248.803C100.545 249.45 99.9105 250.332 99.4844 251.449C99.0668 252.557 98.858 253.801 98.858 255.182C98.858 256.58 99.071 257.849 99.4972 258.991C99.9318 260.125 100.571 261.028 101.415 261.702C102.267 262.366 103.324 262.699 104.585 262.699ZM124.899 265.46C123.655 265.46 122.526 265.226 121.511 264.757C120.497 264.28 119.692 263.594 119.095 262.699C118.499 261.795 118.2 260.705 118.2 259.426C118.2 258.301 118.422 257.389 118.865 256.69C119.308 255.983 119.901 255.429 120.642 255.028C121.384 254.628 122.202 254.33 123.097 254.134C124 253.929 124.908 253.767 125.82 253.648C127.013 253.494 127.98 253.379 128.722 253.303C129.472 253.217 130.017 253.077 130.358 252.881C130.707 252.685 130.882 252.344 130.882 251.858V251.756C130.882 250.494 130.537 249.514 129.847 248.815C129.165 248.116 128.129 247.767 126.74 247.767C125.3 247.767 124.17 248.082 123.352 248.713C122.534 249.344 121.959 250.017 121.626 250.733L118.763 249.71C119.274 248.517 119.956 247.588 120.808 246.923C121.669 246.25 122.607 245.781 123.621 245.517C124.643 245.244 125.649 245.108 126.638 245.108C127.268 245.108 127.993 245.185 128.811 245.338C129.638 245.483 130.435 245.786 131.202 246.246C131.977 246.706 132.621 247.401 133.132 248.33C133.643 249.259 133.899 250.503 133.899 252.062V265H130.882V262.341H130.729C130.524 262.767 130.183 263.223 129.706 263.709C129.229 264.195 128.594 264.608 127.801 264.949C127.009 265.29 126.041 265.46 124.899 265.46ZM125.359 262.75C126.553 262.75 127.558 262.516 128.376 262.047C129.203 261.578 129.825 260.973 130.243 260.232C130.669 259.49 130.882 258.71 130.882 257.892V255.131C130.754 255.284 130.473 255.425 130.038 255.553C129.612 255.672 129.118 255.778 128.555 255.872C128.001 255.957 127.46 256.034 126.932 256.102C126.412 256.162 125.99 256.213 125.666 256.256C124.882 256.358 124.149 256.524 123.467 256.754C122.794 256.976 122.249 257.312 121.831 257.764C121.422 258.207 121.217 258.812 121.217 259.58C121.217 260.628 121.605 261.42 122.381 261.957C123.165 262.486 124.158 262.75 125.359 262.75ZM146.821 265.409C145.184 265.409 143.74 264.996 142.487 264.169C141.234 263.334 140.254 262.158 139.547 260.641C138.839 259.115 138.485 257.312 138.485 255.233C138.485 253.17 138.839 251.381 139.547 249.864C140.254 248.347 141.238 247.175 142.5 246.348C143.761 245.521 145.218 245.108 146.872 245.108C148.15 245.108 149.16 245.321 149.902 245.747C150.652 246.165 151.223 246.642 151.615 247.179C152.015 247.707 152.326 248.142 152.548 248.483H152.804V238.818H155.821V265H152.906V261.983H152.548C152.326 262.341 152.011 262.793 151.602 263.338C151.193 263.875 150.609 264.357 149.85 264.783C149.092 265.2 148.082 265.409 146.821 265.409ZM147.23 262.699C148.44 262.699 149.463 262.384 150.298 261.753C151.133 261.114 151.768 260.232 152.203 259.107C152.637 257.973 152.855 256.665 152.855 255.182C152.855 253.716 152.642 252.433 152.216 251.334C151.789 250.226 151.159 249.365 150.324 248.751C149.488 248.129 148.457 247.818 147.23 247.818C145.951 247.818 144.886 248.146 144.034 248.803C143.19 249.45 142.555 250.332 142.129 251.449C141.711 252.557 141.502 253.801 141.502 255.182C141.502 256.58 141.716 257.849 142.142 258.991C142.576 260.125 143.216 261.028 144.059 261.702C144.912 262.366 145.968 262.699 147.23 262.699ZM169.743 265.409C167.97 265.409 166.414 264.987 165.076 264.143C163.747 263.3 162.707 262.119 161.957 260.602C161.216 259.085 160.845 257.312 160.845 255.284C160.845 253.239 161.216 251.453 161.957 249.928C162.707 248.402 163.747 247.217 165.076 246.374C166.414 245.53 167.97 245.108 169.743 245.108C171.515 245.108 173.066 245.53 174.396 246.374C175.734 247.217 176.774 248.402 177.515 249.928C178.265 251.453 178.64 253.239 178.64 255.284C178.64 257.312 178.265 259.085 177.515 260.602C176.774 262.119 175.734 263.3 174.396 264.143C173.066 264.987 171.515 265.409 169.743 265.409ZM169.743 262.699C171.089 262.699 172.197 262.354 173.066 261.663C173.936 260.973 174.579 260.065 174.997 258.94C175.414 257.815 175.623 256.597 175.623 255.284C175.623 253.972 175.414 252.749 174.997 251.615C174.579 250.482 173.936 249.565 173.066 248.866C172.197 248.168 171.089 247.818 169.743 247.818C168.396 247.818 167.288 248.168 166.419 248.866C165.549 249.565 164.906 250.482 164.488 251.615C164.071 252.749 163.862 253.972 163.862 255.284C163.862 256.597 164.071 257.815 164.488 258.94C164.906 260.065 165.549 260.973 166.419 261.663C167.288 262.354 168.396 262.699 169.743 262.699ZM197.155 249.761L194.445 250.528C194.274 250.077 194.023 249.638 193.69 249.212C193.366 248.777 192.923 248.419 192.361 248.138C191.798 247.857 191.078 247.716 190.2 247.716C188.999 247.716 187.997 247.993 187.196 248.547C186.403 249.092 186.007 249.787 186.007 250.631C186.007 251.381 186.28 251.973 186.825 252.408C187.371 252.842 188.223 253.205 189.382 253.494L192.297 254.21C194.053 254.636 195.361 255.288 196.222 256.166C197.082 257.036 197.513 258.156 197.513 259.528C197.513 260.653 197.189 261.659 196.541 262.545C195.902 263.432 195.007 264.131 193.857 264.642C192.706 265.153 191.368 265.409 189.842 265.409C187.839 265.409 186.182 264.974 184.869 264.105C183.557 263.236 182.726 261.966 182.376 260.295L185.24 259.58C185.513 260.636 186.028 261.429 186.787 261.957C187.554 262.486 188.555 262.75 189.791 262.75C191.197 262.75 192.314 262.452 193.141 261.855C193.976 261.25 194.393 260.526 194.393 259.682C194.393 259 194.155 258.429 193.678 257.969C193.2 257.5 192.467 257.151 191.479 256.92L188.206 256.153C186.408 255.727 185.087 255.067 184.243 254.172C183.408 253.268 182.99 252.139 182.99 250.784C182.99 249.676 183.301 248.696 183.923 247.844C184.554 246.991 185.411 246.322 186.493 245.837C187.584 245.351 188.82 245.108 190.2 245.108C192.143 245.108 193.669 245.534 194.777 246.386C195.893 247.239 196.686 248.364 197.155 249.761ZM204.253 265.205C203.623 265.205 203.081 264.979 202.63 264.527C202.178 264.075 201.952 263.534 201.952 262.903C201.952 262.273 202.178 261.732 202.63 261.28C203.081 260.828 203.623 260.602 204.253 260.602C204.884 260.602 205.425 260.828 205.877 261.28C206.328 261.732 206.554 262.273 206.554 262.903C206.554 263.321 206.448 263.705 206.235 264.054C206.03 264.403 205.753 264.685 205.404 264.898C205.063 265.102 204.679 265.205 204.253 265.205ZM204.253 250.631C203.623 250.631 203.081 250.405 202.63 249.953C202.178 249.501 201.952 248.96 201.952 248.33C201.952 247.699 202.178 247.158 202.63 246.706C203.081 246.254 203.623 246.028 204.253 246.028C204.884 246.028 205.425 246.254 205.877 246.706C206.328 247.158 206.554 247.699 206.554 248.33C206.554 248.747 206.448 249.131 206.235 249.48C206.03 249.83 205.753 250.111 205.404 250.324C205.063 250.528 204.679 250.631 204.253 250.631Z" fill="white"/>
<path d="M112.341 115.818V142H109.17V115.818H112.341ZM118.698 142V115.818H127.544C129.598 115.818 131.277 116.189 132.581 116.93C133.894 117.663 134.865 118.656 135.496 119.909C136.127 121.162 136.442 122.56 136.442 124.102C136.442 125.645 136.127 127.047 135.496 128.308C134.874 129.57 133.911 130.575 132.607 131.325C131.303 132.067 129.632 132.438 127.596 132.438H121.255V129.625H127.493C128.9 129.625 130.029 129.382 130.881 128.896C131.733 128.411 132.351 127.754 132.735 126.928C133.127 126.092 133.323 125.151 133.323 124.102C133.323 123.054 133.127 122.116 132.735 121.29C132.351 120.463 131.729 119.815 130.868 119.347C130.007 118.869 128.865 118.631 127.442 118.631H121.868V142H118.698ZM143.339 138.651C142.708 138.651 142.167 138.425 141.716 137.973C141.264 137.521 141.038 136.98 141.038 136.349C141.038 135.719 141.264 135.178 141.716 134.726C142.167 134.274 142.708 134.048 143.339 134.048C143.97 134.048 144.511 134.274 144.963 134.726C145.414 135.178 145.64 135.719 145.64 136.349C145.64 136.767 145.534 137.151 145.321 137.5C145.116 137.849 144.839 138.131 144.49 138.344C144.149 138.548 143.765 138.651 143.339 138.651ZM143.339 125.406C142.708 125.406 142.167 125.18 141.716 124.729C141.264 124.277 141.038 123.736 141.038 123.105C141.038 122.474 141.264 121.933 141.716 121.482C142.167 121.03 142.708 120.804 143.339 120.804C143.97 120.804 144.511 121.03 144.963 121.482C145.414 121.933 145.64 122.474 145.64 123.105C145.64 123.523 145.534 123.906 145.321 124.256C145.116 124.605 144.839 124.886 144.49 125.099C144.149 125.304 143.765 125.406 143.339 125.406Z" fill="white"/>
<path d="M680.17 142V115.818H689.324C691.148 115.818 692.652 116.134 693.837 116.764C695.021 117.386 695.903 118.226 696.483 119.283C697.063 120.331 697.352 121.494 697.352 122.773C697.352 123.898 697.152 124.827 696.751 125.56C696.359 126.293 695.839 126.872 695.192 127.298C694.553 127.724 693.858 128.04 693.108 128.244V128.5C693.909 128.551 694.714 128.832 695.524 129.344C696.334 129.855 697.011 130.588 697.557 131.543C698.102 132.497 698.375 133.665 698.375 135.045C698.375 136.358 698.077 137.538 697.48 138.587C696.884 139.635 695.942 140.466 694.655 141.08C693.368 141.693 691.693 142 689.631 142H680.17ZM683.341 139.188H689.631C691.702 139.188 693.172 138.787 694.041 137.986C694.919 137.176 695.358 136.196 695.358 135.045C695.358 134.159 695.132 133.341 694.68 132.591C694.229 131.832 693.585 131.227 692.75 130.776C691.915 130.315 690.926 130.085 689.784 130.085H683.341V139.188ZM683.341 127.324H689.222C690.176 127.324 691.037 127.136 691.804 126.761C692.58 126.386 693.193 125.858 693.645 125.176C694.105 124.494 694.335 123.693 694.335 122.773C694.335 121.622 693.935 120.646 693.134 119.845C692.332 119.036 691.063 118.631 689.324 118.631H683.341V127.324ZM715.55 133.972V122.364H718.567V142H715.55V138.676H715.346C714.886 139.673 714.17 140.521 713.198 141.22C712.227 141.911 710.999 142.256 709.516 142.256C708.289 142.256 707.198 141.987 706.244 141.45C705.289 140.905 704.539 140.087 703.994 138.996C703.448 137.896 703.175 136.511 703.175 134.841V122.364H706.192V134.636C706.192 136.068 706.593 137.21 707.394 138.062C708.204 138.915 709.235 139.341 710.488 139.341C711.238 139.341 712.001 139.149 712.776 138.766C713.56 138.382 714.217 137.794 714.745 137.001C715.282 136.209 715.55 135.199 715.55 133.972ZM738.002 126.761L735.292 127.528C735.122 127.077 734.87 126.638 734.538 126.212C734.214 125.777 733.771 125.419 733.208 125.138C732.646 124.857 731.926 124.716 731.048 124.716C729.846 124.716 728.845 124.993 728.044 125.547C727.251 126.092 726.855 126.787 726.855 127.631C726.855 128.381 727.127 128.973 727.673 129.408C728.218 129.842 729.071 130.205 730.23 130.494L733.145 131.21C734.9 131.636 736.208 132.288 737.069 133.166C737.93 134.036 738.36 135.156 738.36 136.528C738.36 137.653 738.037 138.659 737.389 139.545C736.75 140.432 735.855 141.131 734.704 141.642C733.554 142.153 732.216 142.409 730.69 142.409C728.687 142.409 727.029 141.974 725.717 141.105C724.404 140.236 723.574 138.966 723.224 137.295L726.088 136.58C726.36 137.636 726.876 138.429 727.635 138.957C728.402 139.486 729.403 139.75 730.639 139.75C732.045 139.75 733.162 139.452 733.988 138.855C734.824 138.25 735.241 137.526 735.241 136.682C735.241 136 735.002 135.429 734.525 134.969C734.048 134.5 733.315 134.151 732.326 133.92L729.054 133.153C727.255 132.727 725.934 132.067 725.091 131.172C724.255 130.268 723.838 129.139 723.838 127.784C723.838 126.676 724.149 125.696 724.771 124.844C725.402 123.991 726.258 123.322 727.341 122.837C728.431 122.351 729.667 122.108 731.048 122.108C732.991 122.108 734.517 122.534 735.625 123.386C736.741 124.239 737.534 125.364 738.002 126.761ZM750.879 142.409C749.038 142.409 747.453 141.974 746.124 141.105C744.794 140.236 743.771 139.038 743.055 137.513C742.339 135.987 741.982 134.244 741.982 132.284C741.982 130.29 742.348 128.53 743.081 127.004C743.822 125.47 744.854 124.273 746.175 123.412C747.504 122.543 749.055 122.108 750.828 122.108C752.209 122.108 753.453 122.364 754.561 122.875C755.669 123.386 756.577 124.102 757.284 125.023C757.991 125.943 758.43 127.017 758.601 128.244H755.584C755.354 127.349 754.842 126.557 754.05 125.866C753.266 125.168 752.209 124.818 750.879 124.818C749.703 124.818 748.672 125.125 747.786 125.739C746.908 126.344 746.222 127.2 745.727 128.308C745.241 129.408 744.999 130.699 744.999 132.182C744.999 133.699 745.237 135.02 745.714 136.145C746.2 137.27 746.882 138.143 747.76 138.766C748.646 139.388 749.686 139.699 750.879 139.699C751.663 139.699 752.375 139.562 753.014 139.29C753.653 139.017 754.195 138.625 754.638 138.114C755.081 137.602 755.396 136.989 755.584 136.273H758.601C758.43 137.432 758.009 138.476 757.335 139.405C756.67 140.325 755.788 141.058 754.689 141.604C753.598 142.141 752.328 142.409 750.879 142.409ZM768.79 142.46C767.545 142.46 766.416 142.226 765.402 141.757C764.388 141.28 763.582 140.594 762.986 139.699C762.389 138.795 762.091 137.705 762.091 136.426C762.091 135.301 762.313 134.389 762.756 133.69C763.199 132.983 763.791 132.429 764.533 132.028C765.274 131.628 766.092 131.33 766.987 131.134C767.891 130.929 768.798 130.767 769.71 130.648C770.903 130.494 771.871 130.379 772.612 130.303C773.362 130.217 773.908 130.077 774.249 129.881C774.598 129.685 774.773 129.344 774.773 128.858V128.756C774.773 127.494 774.428 126.514 773.737 125.815C773.055 125.116 772.02 124.767 770.631 124.767C769.19 124.767 768.061 125.082 767.243 125.713C766.425 126.344 765.849 127.017 765.517 127.733L762.653 126.71C763.165 125.517 763.847 124.588 764.699 123.923C765.56 123.25 766.497 122.781 767.511 122.517C768.534 122.244 769.54 122.108 770.528 122.108C771.159 122.108 771.884 122.185 772.702 122.338C773.528 122.483 774.325 122.786 775.092 123.246C775.868 123.706 776.511 124.401 777.023 125.33C777.534 126.259 777.79 127.503 777.79 129.062V142H774.773V139.341H774.619C774.415 139.767 774.074 140.223 773.597 140.709C773.119 141.195 772.484 141.608 771.692 141.949C770.899 142.29 769.932 142.46 768.79 142.46ZM769.25 139.75C770.443 139.75 771.449 139.516 772.267 139.047C773.094 138.578 773.716 137.973 774.134 137.232C774.56 136.49 774.773 135.71 774.773 134.892V132.131C774.645 132.284 774.364 132.425 773.929 132.553C773.503 132.672 773.009 132.778 772.446 132.872C771.892 132.957 771.351 133.034 770.822 133.102C770.303 133.162 769.881 133.213 769.557 133.256C768.773 133.358 768.04 133.524 767.358 133.754C766.685 133.976 766.139 134.312 765.722 134.764C765.313 135.207 765.108 135.812 765.108 136.58C765.108 137.628 765.496 138.42 766.271 138.957C767.055 139.486 768.048 139.75 769.25 139.75ZM783.297 142V122.364H786.211V125.33H786.416C786.774 124.358 787.422 123.57 788.359 122.964C789.297 122.359 790.353 122.057 791.529 122.057C791.751 122.057 792.028 122.061 792.36 122.07C792.693 122.078 792.944 122.091 793.115 122.108V125.176C793.012 125.151 792.778 125.112 792.412 125.061C792.054 125.001 791.674 124.972 791.274 124.972C790.319 124.972 789.467 125.172 788.717 125.572C787.975 125.964 787.387 126.51 786.953 127.209C786.527 127.899 786.314 128.687 786.314 129.574V142H783.297Z" fill="white"/>
<defs>
<linearGradient id="paint0_linear_4_33" x1="450" y1="0" x2="450" y2="544.5" gradientUnits="userSpaceOnUse">
<stop stop-color="#B6B6B6" stop-opacity="0.54"/>
<stop offset="1" stop-color="#505050" stop-opacity="0.69"/>
</linearGradient>
</defs>
</svg>
